v -0.76 0 0
v -0.76 0 0
v -0.76 0 0
v -0.76 0 0
v -0.76 0 0
v -0.76 0 0
v -0.76 0 0
v -0.76 0 0
v -0.76 0 0
v -0.76 0 0
v -0.76 0 0
v -0.76 0 0
v -0.75 0 0.03
v -0.75 -0.015 0.02598
v -0.75 -0.02598 0.015
v -0.75 -0.03 0
v -0.75 -0.02598 -0.015
v -0.75 -0.015 -0.02598
v -0.75 0 -0.03
v -0.75 0.015 -0.02598
v -0.75 0.02598 -0.015
v -0.75 0.03 0
v -0.75 0.02598 0.015
v -0.75 0.015 0.02598
v -0.65 0 0.1
v -0.65 -0.05 0.0866
v -0.65 -0.0866 0.05
v -0.65 -0.1 0
v -0.65 -0.0866 -0.05
v -0.65 -0.05 -0.0866
v -0.65 0 -0.1
v -0.65 0.05 -0.0866
v -0.65 0.0866 -0.05
v -0.65 0.1 0
v -0.65 0.0866 0.05
v -0.65 0.05 0.0866
v -0.55 0 0.15
v -0.55 -0.075 0.1299
v -0.55 -0.1299 0.075
v -0.55 -0.15 0
v -0.55 -0.1299 -0.075
v -0.55 -0.075 -0.1299
v -0.55 0 -0.15
v -0.55 0.075 -0.1299
v -0.55 0.1299 -0.075
v -0.55 0.15 0
v -0.55 0.1299 0.075
v -0.55 0.075 0.1299
v -0.25 0 0.25
v -0.25 -0.125 0.21651
v -0.25 -0.21651 0.125
v -0.25 -0.25 0
v -0.25 -0.21651 -0.125
v -0.25 -0.125 -0.21651
v -0.25 0 -0.25
v -0.25 0.125 -0.21651
v -0.25 0.21651 -0.125
v -0.25 0.25 0
v -0.25 0.21651 0.125
v -0.25 0.125 0.21651
v -0.15 0 0.25
v -0.15 -0.125 0.21651
v -0.15 -0.21651 0.125
v -0.15 -0.25 0
v -0.15 -0.21651 -0.125
v -0.15 -0.125 -0.21651
v -0.15 0 -0.25
v -0.15 0.125 -0.21651
v -0.15 0.21651 -0.125
v -0.15 0.25 0
v -0.15 0.21651 0.125
v -0.15 0.125 0.21651
v -0.1 0 0.25
v -0.1 -0.125 0.21651
v -0.1 -0.21651 0.125
v -0.1 -0.25 0
v -0.1 -0.21651 -0.125
v -0.1 -0.125 -0.21651
v -0.1 0 -0.25
v -0.1 0.125 -0.21651
v -0.1 0.21651 -0.125
v -0.1 0.25 0
v -0.1 0.21651 0.125
v -0.1 0.125 0.21651
v 0.1 0 0.25
v 0.1 -0.125 0.21651
v 0.1 -0.21651 0.125
v 0.1 -0.25 0
v 0.1 -0.21651 -0.125
v 0.1 -0.125 -0.21651
v 0.1 0 -0.25
v 0.1 0.125 -0.21651
v 0.1 0.21651 -0.125
v 0.1 0.25 0
v 0.1 0.21651 0.125
v 0.1 0.125 0.21651
v 0.12 0 0.27
v 0.12 -0.135 0.23383
v 0.12 -0.23383 0.135
v 0.12 -0.27 0
v 0.12 -0.23383 -0.135
v 0.12 -0.135 -0.23383
v 0.12 0 -0.27
v 0.12 0.135 -0.23383
v 0.12 0.23383 -0.135
v 0.12 0.27 0
v 0.12 0.23383 0.135
v 0.12 0.135 0.23383
v 0.3 0 0.27
v 0.3 -0.135 0.23383
v 0.3 -0.23383 0.135
v 0.3 -0.27 0
v 0.3 -0.23383 -0.135
v 0.3 -0.135 -0.23383
v 0.3 0 -0.27
v 0.3 0.135 -0.23383
v 0.3 0.23383 -0.135
v 0.3 0.27 0
v 0.3 0.23383 0.135
v 0.3 0.135 0.23383
v 0.32 0 0.25
v 0.32 -0.125 0.21651
v 0.32 -0.21651 0.125
v 0.32 -0.25 0
v 0.32 -0.21651 -0.125
v 0.32 -0.125 -0.21651
v 0.32 0 -0.25
v 0.32 0.125 -0.21651
v 0.32 0.21651 -0.125
v 0.32 0.25 0
v 0.32 0.21651 0.125
v 0.32 0.125 0.21651
v 0.38 0 0.25
v 0.38 -0.125 0.21651
v 0.38 -0.21651 0.125
v 0.38 -0.25 0
v 0.38 -0.21651 -0.125
v 0.38 -0.125 -0.21651
v 0.38 0 -0.25
v 0.38 0.125 -0.21651
v 0.38 0.21651 -0.125
v 0.38 0.25 0
v 0.38 0.21651 0.125
v 0.38 0.125 0.21651
v 0.4 0 0.27
v 0.4 -0.135 0.23383
v 0.4 -0.23383 0.135
v 0.4 -0.27 0
v 0.4 -0.23383 -0.135
v 0.4 -0.135 -0.23383
v 0.4 0 -0.27
v 0.4 0.135 -0.23383
v 0.4 0.23383 -0.135
v 0.4 0.27 0
v 0.4 0.23383 0.135
v 0.4 0.135 0.23383
v 0.58 0 0.27
v 0.58 -0.135 0.23383
v 0.58 -0.23383 0.135
v 0.58 -0.27 0
v 0.58 -0.23383 -0.135
v 0.58 -0.135 -0.23383
v 0.58 0 -0.27
v 0.58 0.135 -0.23383
v 0.58 0.23383 -0.135
v 0.58 0.27 0
v 0.58 0.23383 0.135
v 0.58 0.135 0.23383
v 0.6 0 0.25
v 0.6 -0.125 0.21651
v 0.6 -0.21651 0.125
v 0.6 -0.25 0
v 0.6 -0.21651 -0.125
v 0.6 -0.125 -0.21651
v 0.6 0 -0.25
v 0.6 0.125 -0.21651
v 0.6 0.21651 -0.125
v 0.6 0.25 0
v 0.6 0.21651 0.125
v 0.6 0.125 0.21651
v 0.75 0 0.25
v 0.75 -0.125 0.21651
v 0.75 -0.21651 0.125
v 0.75 -0.25 0
v 0.75 -0.21651 -0.125
v 0.75 -0.125 -0.21651
v 0.75 0 -0.25
v 0.75 0.125 -0.21651
v 0.75 0.21651 -0.125
v 0.75 0.25 0
v 0.75 0.21651 0.125
v 0.75 0.125 0.21651
v 1 0 0.18
v 1 -0.09 0.15588
v 1 -0.15588 0.09
v 1 -0.18 0
v 1 -0.15588 -0.09
v 1 -0.09 -0.15588
v 1 0 -0.18
v 1 0.09 -0.15588
v 1 0.15588 -0.09
v 1 0.18 0
v 1 0.15588 0.09
v 1 0.09 0.15588
v 1 0 0.1
v 1 -0.05 0.0866
v 1 -0.0866 0.05
v 1 -0.1 0
v 1 -0.0866 -0.05
v 1 -0.05 -0.0866
v 1 0 -0.1
v 1 0.05 -0.0866
v 1 0.0866 -0.05
v 1 0.1 0
v 1 0.0866 0.05
v 1 0.05 0.0866
v 0.95 0 0.1
v 0.95 -0.05 0.0866
v 0.95 -0.0866 0.05
v 0.95 -0.1 0
v 0.95 -0.0866 -0.05
v 0.95 -0.05 -0.0866
v 0.95 0 -0.1
v 0.95 0.05 -0.0866
v 0.95 0.0866 -0.05
v 0.95 0.1 0
v 0.95 0.0866 0.05
v 0.95 0.05 0.0866
v 0.95 0 0
v 0.95 0 0
v 0.95 0 0
v 0.95 0 0
v 0.95 0 0
v 0.95 0 0
v 0.95 0 0
v 0.95 0 0
v 0.95 0 0
v 0.95 0 0
v 0.95 0 0
v 0.95 0 0

vt 0.5125 0.775
vt 0.5125 0.975
vt 0.54583 0.975
vt 0.54583 0.775
vt 0.5125 0.775
vt 0.54583 0.975
vt 0.54583 0.775
vt 0.54583 0.975
vt 0.57917 0.975
vt 0.57917 0.775
vt 0.54583 0.775
vt 0.57917 0.975
vt 0.57917 0.775
vt 0.57917 0.975
vt 0.6125 0.975
vt 0.6125 0.775
vt 0.57917 0.775
vt 0.6125 0.975
vt 0.5125 0.775
vt 0.5125 0.975
vt 0.54583 0.975
vt 0.54583 0.775
vt 0.5125 0.775
vt 0.54583 0.975
vt 0.54583 0.775
vt 0.54583 0.975
vt 0.57917 0.975
vt 0.57917 0.775
vt 0.54583 0.775
vt 0.57917 0.975
vt 0.57917 0.775
vt 0.57917 0.975
vt 0.6125 0.975
vt 0.6125 0.775
vt 0.57917 0.775
vt 0.6125 0.975
vt 0.5125 0.775
vt 0.5125 0.975
vt 0.54583 0.775
vt 0.5125 0.975
vt 0.54583 0.975
vt 0.54583 0.775
vt 0.54583 0.775
vt 0.54583 0.975
vt 0.57917 0.775
vt 0.54583 0.975
vt 0.57917 0.975
vt 0.57917 0.775
vt 0.57917 0.775
vt 0.57917 0.975
vt 0.6125 0.775
vt 0.57917 0.975
vt 0.6125 0.975
vt 0.6125 0.775
vt 0.5125 0.775
vt 0.5125 0.975
vt 0.54583 0.775
vt 0.5125 0.975
vt 0.54583 0.975
vt 0.54583 0.775
vt 0.54583 0.775
vt 0.54583 0.975
vt 0.57917 0.775
vt 0.54583 0.975
vt 0.57917 0.975
vt 0.57917 0.775
vt 0.57917 0.775
vt 0.57917 0.975
vt 0.6125 0.775
vt 0.57917 0.975
vt 0.6125 0.975
vt 0.6125 0.775
vt 0.7625 0.775
vt 0.7625 0.975
vt 0.79583 0.975
vt 0.79583 0.775
vt 0.7625 0.775
vt 0.79583 0.975
vt 0.79583 0.775
vt 0.79583 0.975
vt 0.82917 0.975
vt 0.82917 0.775
vt 0.79583 0.775
vt 0.82917 0.975
vt 0.82917 0.775
vt 0.82917 0.975
vt 0.8625 0.975
vt 0.8625 0.775
vt 0.82917 0.775
vt 0.8625 0.975
vt 0.7625 0.775
vt 0.7625 0.975
vt 0.79583 0.975
vt 0.79583 0.775
vt 0.7625 0.775
vt 0.79583 0.975
vt 0.79583 0.775
vt 0.79583 0.975
vt 0.82917 0.975
vt 0.82917 0.775
vt 0.79583 0.775
vt 0.82917 0.975
vt 0.82917 0.775
vt 0.82917 0.975
vt 0.8625 0.975
vt 0.8625 0.775
vt 0.82917 0.775
vt 0.8625 0.975
vt 0.7625 0.775
vt 0.7625 0.975
vt 0.79583 0.775
vt 0.7625 0.975
vt 0.79583 0.975
vt 0.79583 0.775
vt 0.79583 0.775
vt 0.79583 0.975
vt 0.82917 0.775
vt 0.79583 0.975
vt 0.82917 0.975
vt 0.82917 0.775
vt 0.82917 0.775
vt 0.82917 0.975
vt 0.8625 0.775
vt 0.82917 0.975
vt 0.8625 0.975
vt 0.8625 0.775
vt 0.7625 0.775
vt 0.7625 0.975
vt 0.79583 0.775
vt 0.7625 0.975
vt 0.79583 0.975
vt 0.79583 0.775
vt 0.79583 0.775
vt 0.79583 0.975
vt 0.82917 0.775
vt 0.79583 0.975
vt 0.82917 0.975
vt 0.82917 0.775
vt 0.82917 0.775
vt 0.82917 0.975
vt 0.8625 0.775
vt 0.82917 0.975
vt 0.8625 0.975
vt 0.8625 0.775
vt 0.7625 0.775
vt 0.7625 0.975
vt 0.79583 0.975
vt 0.79583 0.775
vt 0.7625 0.775
vt 0.79583 0.975
vt 0.79583 0.775
vt 0.79583 0.975
vt 0.82917 0.975
vt 0.82917 0.775
vt 0.79583 0.775
vt 0.82917 0.975
vt 0.82917 0.775
vt 0.82917 0.975
vt 0.8625 0.975
vt 0.8625 0.775
vt 0.82917 0.775
vt 0.8625 0.975
vt 0.7625 0.775
vt 0.7625 0.975
vt 0.79583 0.975
vt 0.79583 0.775
vt 0.7625 0.775
vt 0.79583 0.975
vt 0.79583 0.775
vt 0.79583 0.975
vt 0.82917 0.975
vt 0.82917 0.775
vt 0.79583 0.775
vt 0.82917 0.975
vt 0.82917 0.775
vt 0.82917 0.975
vt 0.8625 0.975
vt 0.8625 0.775
vt 0.82917 0.775
vt 0.8625 0.975
vt 0.7625 0.775
vt 0.7625 0.975
vt 0.79583 0.775
vt 0.7625 0.975
vt 0.79583 0.975
vt 0.79583 0.775
vt 0.79583 0.775
vt 0.79583 0.975
vt 0.82917 0.775
vt 0.79583 0.975
vt 0.82917 0.975
vt 0.82917 0.775
vt 0.82917 0.775
vt 0.82917 0.975
vt 0.8625 0.775
vt 0.82917 0.975
vt 0.8625 0.975
vt 0.8625 0.775
vt 0.7625 0.775
vt 0.7625 0.975
vt 0.79583 0.775
vt 0.7625 0.975
vt 0.79583 0.975
vt 0.79583 0.775
vt 0.79583 0.775
vt 0.79583 0.975
vt 0.82917 0.775
vt 0.79583 0.975
vt 0.82917 0.975
vt 0.82917 0.775
vt 0.82917 0.775
vt 0.82917 0.975
vt 0.8625 0.775
vt 0.82917 0.975
vt 0.8625 0.975
vt 0.8625 0.775
vt 0.2625 0.775
vt 0.2625 0.975
vt 0.29583 0.975
vt 0.29583 0.775
vt 0.2625 0.775
vt 0.29583 0.975
vt 0.29583 0.775
vt 0.29583 0.975
vt 0.32917 0.975
vt 0.32917 0.775
vt 0.29583 0.775
vt 0.32917 0.975
vt 0.32917 0.775
vt 0.32917 0.975
vt 0.3625 0.975
vt 0.3625 0.775
vt 0.32917 0.775
vt 0.3625 0.975
vt 0.2625 0.775
vt 0.2625 0.975
vt 0.29583 0.975
vt 0.29583 0.775
vt 0.2625 0.775
vt 0.29583 0.975
vt 0.29583 0.775
vt 0.29583 0.975
vt 0.32917 0.975
vt 0.32917 0.775
vt 0.29583 0.775
vt 0.32917 0.975
vt 0.32917 0.775
vt 0.32917 0.975
vt 0.3625 0.975
vt 0.3625 0.775
vt 0.32917 0.775
vt 0.3625 0.975
vt 0.2625 0.775
vt 0.2625 0.975
vt 0.29583 0.775
vt 0.2625 0.975
vt 0.29583 0.975
vt 0.29583 0.775
vt 0.29583 0.775
vt 0.29583 0.975
vt 0.32917 0.775
vt 0.29583 0.975
vt 0.32917 0.975
vt 0.32917 0.775
vt 0.32917 0.775
vt 0.32917 0.975
vt 0.3625 0.775
vt 0.32917 0.975
vt 0.3625 0.975
vt 0.3625 0.775
vt 0.2625 0.775
vt 0.2625 0.975
vt 0.29583 0.775
vt 0.2625 0.975
vt 0.29583 0.975
vt 0.29583 0.775
vt 0.29583 0.775
vt 0.29583 0.975
vt 0.32917 0.775
vt 0.29583 0.975
vt 0.32917 0.975
vt 0.32917 0.775
vt 0.32917 0.775
vt 0.32917 0.975
vt 0.3625 0.775
vt 0.32917 0.975
vt 0.3625 0.975
vt 0.3625 0.775
vt 0.3875 0.775
vt 0.3875 0.975
vt 0.42083 0.975
vt 0.42083 0.775
vt 0.3875 0.775
vt 0.42083 0.975
vt 0.42083 0.775
vt 0.42083 0.975
vt 0.45417 0.975
vt 0.45417 0.775
vt 0.42083 0.775
vt 0.45417 0.975
vt 0.45417 0.775
vt 0.45417 0.975
vt 0.4875 0.975
vt 0.4875 0.775
vt 0.45417 0.775
vt 0.4875 0.975
vt 0.3875 0.775
vt 0.3875 0.975
vt 0.42083 0.975
vt 0.42083 0.775
vt 0.3875 0.775
vt 0.42083 0.975
vt 0.42083 0.775
vt 0.42083 0.975
vt 0.45417 0.975
vt 0.45417 0.775
vt 0.42083 0.775
vt 0.45417 0.975
vt 0.45417 0.775
vt 0.45417 0.975
vt 0.4875 0.975
vt 0.4875 0.775
vt 0.45417 0.775
vt 0.4875 0.975
vt 0.3875 0.775
vt 0.3875 0.975
vt 0.42083 0.775
vt 0.3875 0.975
vt 0.42083 0.975
vt 0.42083 0.775
vt 0.42083 0.775
vt 0.42083 0.975
vt 0.45417 0.775
vt 0.42083 0.975
vt 0.45417 0.975
vt 0.45417 0.775
vt 0.45417 0.775
vt 0.45417 0.975
vt 0.4875 0.775
vt 0.45417 0.975
vt 0.4875 0.975
vt 0.4875 0.775
vt 0.3875 0.775
vt 0.3875 0.975
vt 0.42083 0.775
vt 0.3875 0.975
vt 0.42083 0.975
vt 0.42083 0.775
vt 0.42083 0.775
vt 0.42083 0.975
vt 0.45417 0.775
vt 0.42083 0.975
vt 0.45417 0.975
vt 0.45417 0.775
vt 0.45417 0.775
vt 0.45417 0.975
vt 0.4875 0.775
vt 0.45417 0.975
vt 0.4875 0.975
vt 0.4875 0.775
vt 0.87625 0.025
vt 0.87625 0.225
vt 0.87625 0.225
vt 0.87625 0.025
vt 0.87625 0.025
vt 0.87625 0.225
vt 0.87625 0.025
vt 0.87625 0.225
vt 0.87625 0.225
vt 0.87625 0.025
vt 0.87625 0.025
vt 0.87625 0.225
vt 0.87625 0.025
vt 0.87625 0.225
vt 0.87625 0.225
vt 0.87625 0.025
vt 0.87625 0.025
vt 0.87625 0.225
vt 0.87625 0.025
vt 0.87625 0.225
vt 0.87625 0.225
vt 0.87625 0.025
vt 0.87625 0.025
vt 0.87625 0.225
vt 0.87625 0.025
vt 0.87625 0.225
vt 0.87625 0.225
vt 0.87625 0.025
vt 0.87625 0.025
vt 0.87625 0.225
vt 0.87625 0.025
vt 0.87625 0.225
vt 0.87625 0.225
vt 0.87625 0.025
vt 0.87625 0.025
vt 0.87625 0.225
vt 0.87625 0.025
vt 0.87625 0.225
vt 0.87625 0.025
vt 0.87625 0.225
vt 0.87625 0.225
vt 0.87625 0.025
vt 0.87625 0.025
vt 0.87625 0.225
vt 0.87625 0.025
vt 0.87625 0.225
vt 0.87625 0.225
vt 0.87625 0.025
vt 0.87625 0.025
vt 0.87625 0.225
vt 0.87625 0.025
vt 0.87625 0.225
vt 0.87625 0.225
vt 0.87625 0.025
vt 0.87625 0.025
vt 0.87625 0.225
vt 0.87625 0.025
vt 0.87625 0.225
vt 0.87625 0.225
vt 0.87625 0.025
vt 0.87625 0.025
vt 0.87625 0.225
vt 0.87625 0.025
vt 0.87625 0.225
vt 0.87625 0.225
vt 0.87625 0.025
vt 0.87625 0.025
vt 0.87625 0.225
vt 0.87625 0.025
vt 0.87625 0.225
vt 0.87625 0.225
vt 0.87625 0.025
vt 0.0125 0.525
vt 0.0125 0.725
vt 0.04583 0.725
vt 0.04583 0.525
vt 0.0125 0.525
vt 0.04583 0.725
vt 0.04583 0.525
vt 0.04583 0.725
vt 0.07917 0.725
vt 0.07917 0.525
vt 0.04583 0.525
vt 0.07917 0.725
vt 0.07917 0.525
vt 0.07917 0.725
vt 0.1125 0.725
vt 0.1125 0.525
vt 0.07917 0.525
vt 0.1125 0.725
vt 0.0125 0.525
vt 0.0125 0.725
vt 0.04583 0.725
vt 0.04583 0.525
vt 0.0125 0.525
vt 0.04583 0.725
vt 0.04583 0.525
vt 0.04583 0.725
vt 0.07917 0.725
vt 0.07917 0.525
vt 0.04583 0.525
vt 0.07917 0.725
vt 0.07917 0.525
vt 0.07917 0.725
vt 0.1125 0.725
vt 0.1125 0.525
vt 0.07917 0.525
vt 0.1125 0.725
vt 0.0125 0.525
vt 0.0125 0.725
vt 0.04583 0.525
vt 0.0125 0.725
vt 0.04583 0.725
vt 0.04583 0.525
vt 0.04583 0.525
vt 0.04583 0.725
vt 0.07917 0.525
vt 0.04583 0.725
vt 0.07917 0.725
vt 0.07917 0.525
vt 0.07917 0.525
vt 0.07917 0.725
vt 0.1125 0.525
vt 0.07917 0.725
vt 0.1125 0.725
vt 0.1125 0.525
vt 0.0125 0.525
vt 0.0125 0.725
vt 0.04583 0.525
vt 0.0125 0.725
vt 0.04583 0.725
vt 0.04583 0.525
vt 0.04583 0.525
vt 0.04583 0.725
vt 0.07917 0.525
vt 0.04583 0.725
vt 0.07917 0.725
vt 0.07917 0.525
vt 0.07917 0.525
vt 0.07917 0.725
vt 0.1125 0.525
vt 0.07917 0.725
vt 0.1125 0.725
vt 0.1125 0.525
vt 0.87625 0.025
vt 0.87625 0.225
vt 0.87625 0.225
vt 0.87625 0.025
vt 0.87625 0.025
vt 0.87625 0.225
vt 0.87625 0.025
vt 0.87625 0.225
vt 0.87625 0.225
vt 0.87625 0.025
vt 0.87625 0.025
vt 0.87625 0.225
vt 0.87625 0.025
vt 0.87625 0.225
vt 0.87625 0.225
vt 0.87625 0.025
vt 0.87625 0.025
vt 0.87625 0.225
vt 0.87625 0.025
vt 0.87625 0.225
vt 0.87625 0.225
vt 0.87625 0.025
vt 0.87625 0.025
vt 0.87625 0.225
vt 0.87625 0.025
vt 0.87625 0.225
vt 0.87625 0.225
vt 0.87625 0.025
vt 0.87625 0.025
vt 0.87625 0.225
vt 0.87625 0.025
vt 0.87625 0.225
vt 0.87625 0.225
vt 0.87625 0.025
vt 0.87625 0.025
vt 0.87625 0.225
vt 0.87625 0.025
vt 0.87625 0.225
vt 0.87625 0.025
vt 0.87625 0.225
vt 0.87625 0.225
vt 0.87625 0.025
vt 0.87625 0.025
vt 0.87625 0.225
vt 0.87625 0.025
vt 0.87625 0.225
vt 0.87625 0.225
vt 0.87625 0.025
vt 0.87625 0.025
vt 0.87625 0.225
vt 0.87625 0.025
vt 0.87625 0.225
vt 0.87625 0.225
vt 0.87625 0.025
vt 0.87625 0.025
vt 0.87625 0.225
vt 0.87625 0.025
vt 0.87625 0.225
vt 0.87625 0.225
vt 0.87625 0.025
vt 0.87625 0.025
vt 0.87625 0.225
vt 0.87625 0.025
vt 0.87625 0.225
vt 0.87625 0.225
vt 0.87625 0.025
vt 0.87625 0.025
vt 0.87625 0.225
vt 0.87625 0.025
vt 0.87625 0.225
vt 0.87625 0.225
vt 0.87625 0.025
vt 0.87625 0.025
vt 0.87625 0.225
vt 0.87625 0.225
vt 0.87625 0.025
vt 0.87625 0.025
vt 0.87625 0.225
vt 0.87625 0.025
vt 0.87625 0.225
vt 0.87625 0.225
vt 0.87625 0.025
vt 0.87625 0.025
vt 0.87625 0.225
vt 0.87625 0.025
vt 0.87625 0.225
vt 0.87625 0.225
vt 0.87625 0.025
vt 0.87625 0.025
vt 0.87625 0.225
vt 0.87625 0.025
vt 0.87625 0.225
vt 0.87625 0.225
vt 0.87625 0.025
vt 0.87625 0.025
vt 0.87625 0.225
vt 0.87625 0.025
vt 0.87625 0.225
vt 0.87625 0.225
vt 0.87625 0.025
vt 0.87625 0.025
vt 0.87625 0.225
vt 0.87625 0.025
vt 0.87625 0.225
vt 0.87625 0.225
vt 0.87625 0.025
vt 0.87625 0.025
vt 0.87625 0.225
vt 0.87625 0.025
vt 0.87625 0.225
vt 0.87625 0.025
vt 0.87625 0.225
vt 0.87625 0.225
vt 0.87625 0.025
vt 0.87625 0.025
vt 0.87625 0.225
vt 0.87625 0.025
vt 0.87625 0.225
vt 0.87625 0.225
vt 0.87625 0.025
vt 0.87625 0.025
vt 0.87625 0.225
vt 0.87625 0.025
vt 0.87625 0.225
vt 0.87625 0.225
vt 0.87625 0.025
vt 0.87625 0.025
vt 0.87625 0.225
vt 0.87625 0.025
vt 0.87625 0.225
vt 0.87625 0.225
vt 0.87625 0.025
vt 0.87625 0.025
vt 0.87625 0.225
vt 0.87625 0.025
vt 0.87625 0.225
vt 0.87625 0.225
vt 0.87625 0.025
vt 0.87625 0.025
vt 0.87625 0.225
vt 0.87625 0.025
vt 0.87625 0.225
vt 0.87625 0.225
vt 0.87625 0.025
vt 0.87625 0.025
vt 0.87625 0.225
vt 0.87625 0.225
vt 0.87625 0.025
vt 0.87625 0.025
vt 0.87625 0.225
vt 0.87625 0.025
vt 0.87625 0.225
vt 0.87625 0.225
vt 0.87625 0.025
vt 0.87625 0.025
vt 0.87625 0.225
vt 0.87625 0.025
vt 0.87625 0.225
vt 0.87625 0.225
vt 0.87625 0.025
vt 0.87625 0.025
vt 0.87625 0.225
vt 0.87625 0.025
vt 0.87625 0.225
vt 0.87625 0.225
vt 0.87625 0.025
vt 0.87625 0.025
vt 0.87625 0.225
vt 0.87625 0.025
vt 0.87625 0.225
vt 0.87625 0.225
vt 0.87625 0.025
vt 0.87625 0.025
vt 0.87625 0.225
vt 0.87625 0.025
vt 0.87625 0.225
vt 0.87625 0.225
vt 0.87625 0.025
vt 0.87625 0.025
vt 0.87625 0.225
vt 0.87625 0.025
vt 0.87625 0.225
vt 0.87625 0.025
vt 0.87625 0.225
vt 0.87625 0.225
vt 0.87625 0.025
vt 0.87625 0.025
vt 0.87625 0.225
vt 0.87625 0.025
vt 0.87625 0.225
vt 0.87625 0.225
vt 0.87625 0.025
vt 0.87625 0.025
vt 0.87625 0.225
vt 0.87625 0.025
vt 0.87625 0.225
vt 0.87625 0.225
vt 0.87625 0.025
vt 0.87625 0.025
vt 0.87625 0.225
vt 0.87625 0.025
vt 0.87625 0.225
vt 0.87625 0.225
vt 0.87625 0.025
vt 0.87625 0.025
vt 0.87625 0.225
vt 0.87625 0.025
vt 0.87625 0.225
vt 0.87625 0.225
vt 0.87625 0.025
vt 0.87625 0.025
vt 0.87625 0.225
vt 0.87625 0.025
vt 0.87625 0.225
vt 0.87625 0.225
vt 0.87625 0.025
vt 0.3875 0.775
vt 0.3875 0.975
vt 0.42083 0.975
vt 0.42083 0.775
vt 0.3875 0.775
vt 0.42083 0.975
vt 0.42083 0.775
vt 0.42083 0.975
vt 0.45417 0.975
vt 0.45417 0.775
vt 0.42083 0.775
vt 0.45417 0.975
vt 0.45417 0.775
vt 0.45417 0.975
vt 0.4875 0.975
vt 0.4875 0.775
vt 0.45417 0.775
vt 0.4875 0.975
vt 0.3875 0.775
vt 0.3875 0.975
vt 0.42083 0.975
vt 0.42083 0.775
vt 0.3875 0.775
vt 0.42083 0.975
vt 0.42083 0.775
vt 0.42083 0.975
vt 0.45417 0.975
vt 0.45417 0.775
vt 0.42083 0.775
vt 0.45417 0.975
vt 0.45417 0.775
vt 0.45417 0.975
vt 0.4875 0.975
vt 0.4875 0.775
vt 0.45417 0.775
vt 0.4875 0.975
vt 0.3875 0.775
vt 0.3875 0.975
vt 0.42083 0.775
vt 0.3875 0.975
vt 0.42083 0.975
vt 0.42083 0.775
vt 0.42083 0.775
vt 0.42083 0.975
vt 0.45417 0.775
vt 0.42083 0.975
vt 0.45417 0.975
vt 0.45417 0.775
vt 0.45417 0.775
vt 0.45417 0.975
vt 0.4875 0.775
vt 0.45417 0.975
vt 0.4875 0.975
vt 0.4875 0.775
vt 0.3875 0.775
vt 0.3875 0.975
vt 0.42083 0.775
vt 0.3875 0.975
vt 0.42083 0.975
vt 0.42083 0.775
vt 0.42083 0.775
vt 0.42083 0.975
vt 0.45417 0.775
vt 0.42083 0.975
vt 0.45417 0.975
vt 0.45417 0.775
vt 0.45417 0.775
vt 0.45417 0.975
vt 0.4875 0.775
vt 0.45417 0.975
vt 0.4875 0.975
vt 0.4875 0.775
vt 0.87625 0.025
vt 0.87625 0.225
vt 0.87625 0.225
vt 0.87625 0.025
vt 0.87625 0.025
vt 0.87625 0.225
vt 0.87625 0.025
vt 0.87625 0.225
vt 0.87625 0.225
vt 0.87625 0.025
vt 0.87625 0.025
vt 0.87625 0.225
vt 0.87625 0.025
vt 0.87625 0.225
vt 0.87625 0.225
vt 0.87625 0.025
vt 0.87625 0.025
vt 0.87625 0.225
vt 0.87625 0.025
vt 0.87625 0.225
vt 0.87625 0.225
vt 0.87625 0.025
vt 0.87625 0.025
vt 0.87625 0.225
vt 0.87625 0.025
vt 0.87625 0.225
vt 0.87625 0.225
vt 0.87625 0.025
vt 0.87625 0.025
vt 0.87625 0.225
vt 0.87625 0.025
vt 0.87625 0.225
vt 0.87625 0.225
vt 0.87625 0.025
vt 0.87625 0.025
vt 0.87625 0.225
vt 0.87625 0.025
vt 0.87625 0.225
vt 0.87625 0.025
vt 0.87625 0.225
vt 0.87625 0.225
vt 0.87625 0.025
vt 0.87625 0.025
vt 0.87625 0.225
vt 0.87625 0.025
vt 0.87625 0.225
vt 0.87625 0.225
vt 0.87625 0.025
vt 0.87625 0.025
vt 0.87625 0.225
vt 0.87625 0.025
vt 0.87625 0.225
vt 0.87625 0.225
vt 0.87625 0.025
vt 0.87625 0.025
vt 0.87625 0.225
vt 0.87625 0.025
vt 0.87625 0.225
vt 0.87625 0.225
vt 0.87625 0.025
vt 0.87625 0.025
vt 0.87625 0.225
vt 0.87625 0.025
vt 0.87625 0.225
vt 0.87625 0.225
vt 0.87625 0.025
vt 0.87625 0.025
vt 0.87625 0.225
vt 0.87625 0.025
vt 0.87625 0.225
vt 0.87625 0.225
vt 0.87625 0.025
vt 0.87625 0.025
vt 0.87625 0.225
vt 0.87625 0.225
vt 0.87625 0.025
vt 0.87625 0.025
vt 0.87625 0.225
vt 0.87625 0.025
vt 0.87625 0.225
vt 0.87625 0.225
vt 0.87625 0.025
vt 0.87625 0.025
vt 0.87625 0.225
vt 0.87625 0.025
vt 0.87625 0.225
vt 0.87625 0.225
vt 0.87625 0.025
vt 0.87625 0.025
vt 0.87625 0.225
vt 0.87625 0.025
vt 0.87625 0.225
vt 0.87625 0.225
vt 0.87625 0.025
vt 0.87625 0.025
vt 0.87625 0.225
vt 0.87625 0.025
vt 0.87625 0.225
vt 0.87625 0.225
vt 0.87625 0.025
vt 0.87625 0.025
vt 0.87625 0.225
vt 0.87625 0.025
vt 0.87625 0.225
vt 0.87625 0.225
vt 0.87625 0.025
vt 0.87625 0.025
vt 0.87625 0.225
vt 0.87625 0.025
vt 0.87625 0.225
vt 0.87625 0.025
vt 0.87625 0.225
vt 0.87625 0.225
vt 0.87625 0.025
vt 0.87625 0.025
vt 0.87625 0.225
vt 0.87625 0.025
vt 0.87625 0.225
vt 0.87625 0.225
vt 0.87625 0.025
vt 0.87625 0.025
vt 0.87625 0.225
vt 0.87625 0.025
vt 0.87625 0.225
vt 0.87625 0.225
vt 0.87625 0.025
vt 0.87625 0.025
vt 0.87625 0.225
vt 0.87625 0.025
vt 0.87625 0.225
vt 0.87625 0.225
vt 0.87625 0.025
vt 0.87625 0.025
vt 0.87625 0.225
vt 0.87625 0.025
vt 0.87625 0.225
vt 0.87625 0.225
vt 0.87625 0.025
vt 0.87625 0.025
vt 0.87625 0.225
vt 0.87625 0.025
vt 0.87625 0.225
vt 0.87625 0.225
vt 0.87625 0.025
vt 0.87625 0.025
vt 0.87625 0.225
vt 0.87625 0.225
vt 0.87625 0.025
vt 0.87625 0.025
vt 0.87625 0.225
vt 0.87625 0.025
vt 0.87625 0.225
vt 0.87625 0.225
vt 0.87625 0.025
vt 0.87625 0.025
vt 0.87625 0.225
vt 0.87625 0.025
vt 0.87625 0.225
vt 0.87625 0.225
vt 0.87625 0.025
vt 0.87625 0.025
vt 0.87625 0.225
vt 0.87625 0.025
vt 0.87625 0.225
vt 0.87625 0.225
vt 0.87625 0.025
vt 0.87625 0.025
vt 0.87625 0.225
vt 0.87625 0.025
vt 0.87625 0.225
vt 0.87625 0.225
vt 0.87625 0.025
vt 0.87625 0.025
vt 0.87625 0.225
vt 0.87625 0.025
vt 0.87625 0.225
vt 0.87625 0.225
vt 0.87625 0.025
vt 0.87625 0.025
vt 0.87625 0.225
vt 0.87625 0.025
vt 0.87625 0.225
vt 0.87625 0.025
vt 0.87625 0.225
vt 0.87625 0.225
vt 0.87625 0.025
vt 0.87625 0.025
vt 0.87625 0.225
vt 0.87625 0.025
vt 0.87625 0.225
vt 0.87625 0.225
vt 0.87625 0.025
vt 0.87625 0.025
vt 0.87625 0.225
vt 0.87625 0.025
vt 0.87625 0.225
vt 0.87625 0.225
vt 0.87625 0.025
vt 0.87625 0.025
vt 0.87625 0.225
vt 0.87625 0.025
vt 0.87625 0.225
vt 0.87625 0.225
vt 0.87625 0.025
vt 0.87625 0.025
vt 0.87625 0.225
vt 0.87625 0.025
vt 0.87625 0.225
vt 0.87625 0.225
vt 0.87625 0.025
vt 0.87625 0.025
vt 0.87625 0.225
vt 0.87625 0.025
vt 0.87625 0.225
vt 0.87625 0.225
vt 0.87625 0.025
vt 0.2625 0.775
vt 0.2625 0.975
vt 0.29583 0.975
vt 0.29583 0.775
vt 0.2625 0.775
vt 0.29583 0.975
vt 0.29583 0.775
vt 0.29583 0.975
vt 0.32917 0.975
vt 0.32917 0.775
vt 0.29583 0.775
vt 0.32917 0.975
vt 0.32917 0.775
vt 0.32917 0.975
vt 0.3625 0.975
vt 0.3625 0.775
vt 0.32917 0.775
vt 0.3625 0.975
vt 0.2625 0.775
vt 0.2625 0.975
vt 0.29583 0.975
vt 0.29583 0.775
vt 0.2625 0.775
vt 0.29583 0.975
vt 0.29583 0.775
vt 0.29583 0.975
vt 0.32917 0.975
vt 0.32917 0.775
vt 0.29583 0.775
vt 0.32917 0.975
vt 0.32917 0.775
vt 0.32917 0.975
vt 0.3625 0.975
vt 0.3625 0.775
vt 0.32917 0.775
vt 0.3625 0.975
vt 0.2625 0.775
vt 0.2625 0.975
vt 0.29583 0.775
vt 0.2625 0.975
vt 0.29583 0.975
vt 0.29583 0.775
vt 0.29583 0.775
vt 0.29583 0.975
vt 0.32917 0.775
vt 0.29583 0.975
vt 0.32917 0.975
vt 0.32917 0.775
vt 0.32917 0.775
vt 0.32917 0.975
vt 0.3625 0.775
vt 0.32917 0.975
vt 0.3625 0.975
vt 0.3625 0.775
vt 0.2625 0.775
vt 0.2625 0.975
vt 0.29583 0.775
vt 0.2625 0.975
vt 0.29583 0.975
vt 0.29583 0.775
vt 0.29583 0.775
vt 0.29583 0.975
vt 0.32917 0.775
vt 0.29583 0.975
vt 0.32917 0.975
vt 0.32917 0.775
vt 0.32917 0.775
vt 0.32917 0.975
vt 0.3625 0.775
vt 0.32917 0.975
vt 0.3625 0.975
vt 0.3625 0.775
vt 0.2625 0.775
vt 0.2625 0.975
vt 0.29583 0.975
vt 0.29583 0.775
vt 0.2625 0.775
vt 0.29583 0.975
vt 0.29583 0.775
vt 0.29583 0.975
vt 0.32917 0.975
vt 0.32917 0.775
vt 0.29583 0.775
vt 0.32917 0.975
vt 0.32917 0.775
vt 0.32917 0.975
vt 0.3625 0.975
vt 0.3625 0.775
vt 0.32917 0.775
vt 0.3625 0.975
vt 0.2625 0.775
vt 0.2625 0.975
vt 0.29583 0.975
vt 0.29583 0.775
vt 0.2625 0.775
vt 0.29583 0.975
vt 0.29583 0.775
vt 0.29583 0.975
vt 0.32917 0.975
vt 0.32917 0.775
vt 0.29583 0.775
vt 0.32917 0.975
vt 0.32917 0.775
vt 0.32917 0.975
vt 0.3625 0.975
vt 0.3625 0.775
vt 0.32917 0.775
vt 0.3625 0.975
vt 0.2625 0.775
vt 0.2625 0.975
vt 0.29583 0.775
vt 0.2625 0.975
vt 0.29583 0.975
vt 0.29583 0.775
vt 0.29583 0.775
vt 0.29583 0.975
vt 0.32917 0.775
vt 0.29583 0.975
vt 0.32917 0.975
vt 0.32917 0.775
vt 0.32917 0.775
vt 0.32917 0.975
vt 0.3625 0.775
vt 0.32917 0.975
vt 0.3625 0.975
vt 0.3625 0.775
vt 0.2625 0.775
vt 0.2625 0.975
vt 0.29583 0.775
vt 0.2625 0.975
vt 0.29583 0.975
vt 0.29583 0.775
vt 0.29583 0.775
vt 0.29583 0.975
vt 0.32917 0.775
vt 0.29583 0.975
vt 0.32917 0.975
vt 0.32917 0.775
vt 0.32917 0.775
vt 0.32917 0.975
vt 0.3625 0.775
vt 0.32917 0.975
vt 0.3625 0.975
vt 0.3625 0.775
vt 0.3125 0.775
vt 0.3125 0.975
vt 0.32917 0.975
vt 0.32917 0.775
vt 0.3125 0.775
vt 0.32917 0.975
vt 0.32917 0.775
vt 0.32917 0.975
vt 0.34583 0.975
vt 0.34583 0.775
vt 0.32917 0.775
vt 0.34583 0.975
vt 0.34583 0.775
vt 0.34583 0.975
vt 0.3625 0.975
vt 0.3625 0.775
vt 0.34583 0.775
vt 0.3625 0.975
vt 0.2625 0.775
vt 0.2625 0.975
vt 0.27917 0.975
vt 0.27917 0.775
vt 0.2625 0.775
vt 0.27917 0.975
vt 0.27917 0.775
vt 0.27917 0.975
vt 0.29583 0.975
vt 0.29583 0.775
vt 0.27917 0.775
vt 0.29583 0.975
vt 0.29583 0.775
vt 0.29583 0.975
vt 0.3125 0.975
vt 0.3125 0.775
vt 0.29583 0.775
vt 0.3125 0.975
vt 0.3125 0.775
vt 0.3125 0.975
vt 0.32917 0.775
vt 0.3125 0.975
vt 0.32917 0.975
vt 0.32917 0.775
vt 0.32917 0.775
vt 0.32917 0.975
vt 0.34583 0.775
vt 0.32917 0.975
vt 0.34583 0.975
vt 0.34583 0.775
vt 0.34583 0.775
vt 0.34583 0.975
vt 0.3625 0.775
vt 0.34583 0.975
vt 0.3625 0.975
vt 0.3625 0.775
vt 0.2625 0.775
vt 0.2625 0.975
vt 0.27917 0.775
vt 0.2625 0.975
vt 0.27917 0.975
vt 0.27917 0.775
vt 0.27917 0.775
vt 0.27917 0.975
vt 0.29583 0.775
vt 0.27917 0.975
vt 0.29583 0.975
vt 0.29583 0.775
vt 0.29583 0.775
vt 0.29583 0.975
vt 0.3125 0.775
vt 0.29583 0.975
vt 0.3125 0.975
vt 0.3125 0.775
vt 0.3875 0.775
vt 0.3875 0.975
vt 0.42083 0.975
vt 0.42083 0.775
vt 0.3875 0.775
vt 0.42083 0.975
vt 0.42083 0.775
vt 0.42083 0.975
vt 0.45417 0.975
vt 0.45417 0.775
vt 0.42083 0.775
vt 0.45417 0.975
vt 0.45417 0.775
vt 0.45417 0.975
vt 0.4875 0.975
vt 0.4875 0.775
vt 0.45417 0.775
vt 0.4875 0.975
vt 0.3875 0.775
vt 0.3875 0.975
vt 0.42083 0.975
vt 0.42083 0.775
vt 0.3875 0.775
vt 0.42083 0.975
vt 0.42083 0.775
vt 0.42083 0.975
vt 0.45417 0.975
vt 0.45417 0.775
vt 0.42083 0.775
vt 0.45417 0.975
vt 0.45417 0.775
vt 0.45417 0.975
vt 0.4875 0.975
vt 0.4875 0.775
vt 0.45417 0.775
vt 0.4875 0.975
vt 0.3875 0.775
vt 0.3875 0.975
vt 0.42083 0.775
vt 0.3875 0.975
vt 0.42083 0.975
vt 0.42083 0.775
vt 0.42083 0.775
vt 0.42083 0.975
vt 0.45417 0.775
vt 0.42083 0.975
vt 0.45417 0.975
vt 0.45417 0.775
vt 0.45417 0.775
vt 0.45417 0.975
vt 0.4875 0.775
vt 0.45417 0.975
vt 0.4875 0.975
vt 0.4875 0.775
vt 0.3875 0.775
vt 0.3875 0.975
vt 0.42083 0.775
vt 0.3875 0.975
vt 0.42083 0.975
vt 0.42083 0.775
vt 0.42083 0.775
vt 0.42083 0.975
vt 0.45417 0.775
vt 0.42083 0.975
vt 0.45417 0.975
vt 0.45417 0.775
vt 0.45417 0.775
vt 0.45417 0.975
vt 0.4875 0.775
vt 0.45417 0.975
vt 0.4875 0.975
vt 0.4875 0.775
vt 0.1875 0.275
vt 0.1875 0.475
vt 0.20417 0.475
vt 0.20417 0.275
vt 0.1875 0.275
vt 0.20417 0.475
vt 0.20417 0.275
vt 0.20417 0.475
vt 0.22083 0.475
vt 0.22083 0.275
vt 0.20417 0.275
vt 0.22083 0.475
vt 0.22083 0.275
vt 0.22083 0.475
vt 0.2375 0.475
vt 0.2375 0.275
vt 0.22083 0.275
vt 0.2375 0.475
vt 0.1375 0.275
vt 0.1375 0.475
vt 0.15417 0.475
vt 0.15417 0.275
vt 0.1375 0.275
vt 0.15417 0.475
vt 0.15417 0.275
vt 0.15417 0.475
vt 0.17083 0.475
vt 0.17083 0.275
vt 0.15417 0.275
vt 0.17083 0.475
vt 0.17083 0.275
vt 0.17083 0.475
vt 0.1875 0.475
vt 0.1875 0.275
vt 0.17083 0.275
vt 0.1875 0.475
vt 0.1875 0.275
vt 0.1875 0.475
vt 0.20417 0.275
vt 0.1875 0.475
vt 0.20417 0.475
vt 0.20417 0.275
vt 0.20417 0.275
vt 0.20417 0.475
vt 0.22083 0.275
vt 0.20417 0.475
vt 0.22083 0.475
vt 0.22083 0.275
vt 0.22083 0.275
vt 0.22083 0.475
vt 0.2375 0.275
vt 0.22083 0.475
vt 0.2375 0.475
vt 0.2375 0.275
vt 0.1375 0.275
vt 0.1375 0.475
vt 0.15417 0.275
vt 0.1375 0.475
vt 0.15417 0.475
vt 0.15417 0.275
vt 0.15417 0.275
vt 0.15417 0.475
vt 0.17083 0.275
vt 0.15417 0.475
vt 0.17083 0.475
vt 0.17083 0.275
vt 0.17083 0.275
vt 0.17083 0.475
vt 0.1875 0.275
vt 0.17083 0.475
vt 0.1875 0.475
vt 0.1875 0.275

f 13/1 1/2 2/3
f 14/4 13/5 2/6
f 14/7 2/8 3/9
f 15/10 14/11 3/12
f 15/13 3/14 4/15
f 16/16 15/17 4/18
f 16/19 4/20 5/21
f 17/22 16/23 5/24
f 17/25 5/26 6/27
f 18/28 17/29 6/30
f 18/31 6/32 7/33
f 19/34 18/35 7/36
f 19/37 7/38 20/39
f 7/40 8/41 20/42
f 20/43 8/44 21/45
f 8/46 9/47 21/48
f 21/49 9/50 22/51
f 9/52 10/53 22/54
f 22/55 10/56 23/57
f 10/58 11/59 23/60
f 23/61 11/62 24/63
f 11/64 12/65 24/66
f 24/67 12/68 13/69
f 12/70 1/71 13/72
f 25/73 13/74 14/75
f 26/76 25/77 14/78
f 26/79 14/80 15/81
f 27/82 26/83 15/84
f 27/85 15/86 16/87
f 28/88 27/89 16/90
f 28/91 16/92 17/93
f 29/94 28/95 17/96
f 29/97 17/98 18/99
f 30/100 29/101 18/102
f 30/103 18/104 19/105
f 31/106 30/107 19/108
f 31/109 19/110 32/111
f 19/112 20/113 32/114
f 32/115 20/116 33/117
f 20/118 21/119 33/120
f 33/121 21/122 34/123
f 21/124 22/125 34/126
f 34/127 22/128 35/129
f 22/130 23/131 35/132
f 35/133 23/134 36/135
f 23/136 24/137 36/138
f 36/139 24/140 25/141
f 24/142 13/143 25/144
f 37/145 25/146 26/147
f 38/148 37/149 26/150
f 38/151 26/152 27/153
f 39/154 38/155 27/156
f 39/157 27/158 28/159
f 40/160 39/161 28/162
f 40/163 28/164 29/165
f 41/166 40/167 29/168
f 41/169 29/170 30/171
f 42/172 41/173 30/174
f 42/175 30/176 31/177
f 43/178 42/179 31/180
f 43/181 31/182 44/183
f 31/184 32/185 44/186
f 44/187 32/188 45/189
f 32/190 33/191 45/192
f 45/193 33/194 46/195
f 33/196 34/197 46/198
f 46/199 34/200 47/201
f 34/202 35/203 47/204
f 47/205 35/206 48/207
f 35/208 36/209 48/210
f 48/211 36/212 37/213
f 36/214 25/215 37/216
f 49/217 37/218 38/219
f 50/220 49/221 38/222
f 50/223 38/224 39/225
f 51/226 50/227 39/228
f 51/229 39/230 40/231
f 52/232 51/233 40/234
f 52/235 40/236 41/237
f 53/238 52/239 41/240
f 53/241 41/242 42/243
f 54/244 53/245 42/246
f 54/247 42/248 43/249
f 55/250 54/251 43/252
f 55/253 43/254 56/255
f 43/256 44/257 56/258
f 56/259 44/260 57/261
f 44/262 45/263 57/264
f 57/265 45/266 58/267
f 45/268 46/269 58/270
f 58/271 46/272 59/273
f 46/274 47/275 59/276
f 59/277 47/278 60/279
f 47/280 48/281 60/282
f 60/283 48/284 49/285
f 48/286 37/287 49/288
f 61/289 49/290 50/291
f 62/292 61/293 50/294
f 62/295 50/296 51/297
f 63/298 62/299 51/300
f 63/301 51/302 52/303
f 64/304 63/305 52/306
f 64/307 52/308 53/309
f 65/310 64/311 53/312
f 65/313 53/314 54/315
f 66/316 65/317 54/318
f 66/319 54/320 55/321
f 67/322 66/323 55/324
f 67/325 55/326 68/327
f 55/328 56/329 68/330
f 68/331 56/332 69/333
f 56/334 57/335 69/336
f 69/337 57/338 70/339
f 57/340 58/341 70/342
f 70/343 58/344 71/345
f 58/346 59/347 71/348
f 71/349 59/350 72/351
f 59/352 60/353 72/354
f 72/355 60/356 61/357
f 60/358 49/359 61/360
f 73/361 61/362 62/363
f 74/364 73/365 62/366
f 74/367 62/368 63/369
f 75/370 74/371 63/372
f 75/373 63/374 64/375
f 76/376 75/377 64/378
f 76/379 64/380 65/381
f 77/382 76/383 65/384
f 77/385 65/386 66/387
f 78/388 77/389 66/390
f 78/391 66/392 67/393
f 79/394 78/395 67/396
f 79/397 67/398 80/399
f 67/400 68/401 80/402
f 80/403 68/404 81/405
f 68/406 69/407 81/408
f 81/409 69/410 82/411
f 69/412 70/413 82/414
f 82/415 70/416 83/417
f 70/418 71/419 83/420
f 83/421 71/422 84/423
f 71/424 72/425 84/426
f 84/427 72/428 73/429
f 72/430 61/431 73/432
f 85/433 73/434 74/435
f 86/436 85/437 74/438
f 86/439 74/440 75/441
f 87/442 86/443 75/444
f 87/445 75/446 76/447
f 88/448 87/449 76/450
f 88/451 76/452 77/453
f 89/454 88/455 77/456
f 89/457 77/458 78/459
f 90/460 89/461 78/462
f 90/463 78/464 79/465
f 91/466 90/467 79/468
f 91/469 79/470 92/471
f 79/472 80/473 92/474
f 92/475 80/476 93/477
f 80/478 81/479 93/480
f 93/481 81/482 94/483
f 81/484 82/485 94/486
f 94/487 82/488 95/489
f 82/490 83/491 95/492
f 95/493 83/494 96/495
f 83/496 84/497 96/498
f 96/499 84/500 85/501
f 84/502 73/503 85/504
f 97/505 85/506 86/507
f 98/508 97/509 86/510
f 98/511 86/512 87/513
f 99/514 98/515 87/516
f 99/517 87/518 88/519
f 100/520 99/521 88/522
f 100/523 88/524 89/525
f 101/526 100/527 89/528
f 101/529 89/530 90/531
f 102/532 101/533 90/534
f 102/535 90/536 91/537
f 103/538 102/539 91/540
f 103/541 91/542 104/543
f 91/544 92/545 104/546
f 104/547 92/548 105/549
f 92/550 93/551 105/552
f 105/553 93/554 106/555
f 93/556 94/557 106/558
f 106/559 94/560 107/561
f 94/562 95/563 107/564
f 107/565 95/566 108/567
f 95/568 96/569 108/570
f 108/571 96/572 97/573
f 96/574 85/575 97/576
f 109/577 97/578 98/579
f 110/580 109/581 98/582
f 110/583 98/584 99/585
f 111/586 110/587 99/588
f 111/589 99/590 100/591
f 112/592 111/593 100/594
f 112/595 100/596 101/597
f 113/598 112/599 101/600
f 113/601 101/602 102/603
f 114/604 113/605 102/606
f 114/607 102/608 103/609
f 115/610 114/611 103/612
f 115/613 103/614 116/615
f 103/616 104/617 116/618
f 116/619 104/620 117/621
f 104/622 105/623 117/624
f 117/625 105/626 118/627
f 105/628 106/629 118/630
f 118/631 106/632 119/633
f 106/634 107/635 119/636
f 119/637 107/638 120/639
f 107/640 108/641 120/642
f 120/643 108/644 109/645
f 108/646 97/647 109/648
f 121/649 109/650 110/651
f 122/652 121/653 110/654
f 122/655 110/656 111/657
f 123/658 122/659 111/660
f 123/661 111/662 112/663
f 124/664 123/665 112/666
f 124/667 112/668 113/669
f 125/670 124/671 113/672
f 125/673 113/674 114/675
f 126/676 125/677 114/678
f 126/679 114/680 115/681
f 127/682 126/683 115/684
f 127/685 115/686 128/687
f 115/688 116/689 128/690
f 128/691 116/692 129/693
f 116/694 117/695 129/696
f 129/697 117/698 130/699
f 117/700 118/701 130/702
f 130/703 118/704 131/705
f 118/706 119/707 131/708
f 131/709 119/710 132/711
f 119/712 120/713 132/714
f 132/715 120/716 121/717
f 120/718 109/719 121/720
f 133/721 121/722 122/723
f 134/724 133/725 122/726
f 134/727 122/728 123/729
f 135/730 134/731 123/732
f 135/733 123/734 124/735
f 136/736 135/737 124/738
f 136/739 124/740 125/741
f 137/742 136/743 125/744
f 137/745 125/746 126/747
f 138/748 137/749 126/750
f 138/751 126/752 127/753
f 139/754 138/755 127/756
f 139/757 127/758 140/759
f 127/760 128/761 140/762
f 140/763 128/764 141/765
f 128/766 129/767 141/768
f 141/769 129/770 142/771
f 129/772 130/773 142/774
f 142/775 130/776 143/777
f 130/778 131/779 143/780
f 143/781 131/782 144/783
f 131/784 132/785 144/786
f 144/787 132/788 133/789
f 132/790 121/791 133/792
f 145/793 133/794 134/795
f 146/796 145/797 134/798
f 146/799 134/800 135/801
f 147/802 146/803 135/804
f 147/805 135/806 136/807
f 148/808 147/809 136/810
f 148/811 136/812 137/813
f 149/814 148/815 137/816
f 149/817 137/818 138/819
f 150/820 149/821 138/822
f 150/823 138/824 139/825
f 151/826 150/827 139/828
f 151/829 139/830 152/831
f 139/832 140/833 152/834
f 152/835 140/836 153/837
f 140/838 141/839 153/840
f 153/841 141/842 154/843
f 141/844 142/845 154/846
f 154/847 142/848 155/849
f 142/850 143/851 155/852
f 155/853 143/854 156/855
f 143/856 144/857 156/858
f 156/859 144/860 145/861
f 144/862 133/863 145/864
f 157/865 145/866 146/867
f 158/868 157/869 146/870
f 158/871 146/872 147/873
f 159/874 158/875 147/876
f 159/877 147/878 148/879
f 160/880 159/881 148/882
f 160/883 148/884 149/885
f 161/886 160/887 149/888
f 161/889 149/890 150/891
f 162/892 161/893 150/894
f 162/895 150/896 151/897
f 163/898 162/899 151/900
f 163/901 151/902 164/903
f 151/904 152/905 164/906
f 164/907 152/908 165/909
f 152/910 153/911 165/912
f 165/913 153/914 166/915
f 153/916 154/917 166/918
f 166/919 154/920 167/921
f 154/922 155/923 167/924
f 167/925 155/926 168/927
f 155/928 156/929 168/930
f 168/931 156/932 157/933
f 156/934 145/935 157/936
f 169/937 157/938 158/939
f 170/940 169/941 158/942
f 170/943 158/944 159/945
f 171/946 170/947 159/948
f 171/949 159/950 160/951
f 172/952 171/953 160/954
f 172/955 160/956 161/957
f 173/958 172/959 161/960
f 173/961 161/962 162/963
f 174/964 173/965 162/966
f 174/967 162/968 163/969
f 175/970 174/971 163/972
f 175/973 163/974 176/975
f 163/976 164/977 176/978
f 176/979 164/980 177/981
f 164/982 165/983 177/984
f 177/985 165/986 178/987
f 165/988 166/989 178/990
f 178/991 166/992 179/993
f 166/994 167/995 179/996
f 179/997 167/998 180/999
f 167/1000 168/1001 180/1002
f 180/1003 168/1004 169/1005
f 168/1006 157/1007 169/1008
f 181/1009 169/1010 170/1011
f 182/1012 181/1013 170/1014
f 182/1015 170/1016 171/1017
f 183/1018 182/1019 171/1020
f 183/1021 171/1022 172/1023
f 184/1024 183/1025 172/1026
f 184/1027 172/1028 173/1029
f 185/1030 184/1031 173/1032
f 185/1033 173/1034 174/1035
f 186/1036 185/1037 174/1038
f 186/1039 174/1040 175/1041
f 187/1042 186/1043 175/1044
f 187/1045 175/1046 188/1047
f 175/1048 176/1049 188/1050
f 188/1051 176/1052 189/1053
f 176/1054 177/1055 189/1056
f 189/1057 177/1058 190/1059
f 177/1060 178/1061 190/1062
f 190/1063 178/1064 191/1065
f 178/1066 179/1067 191/1068
f 191/1069 179/1070 192/1071
f 179/1072 180/1073 192/1074
f 192/1075 180/1076 181/1077
f 180/1078 169/1079 181/1080
f 193/1081 181/1082 182/1083
f 194/1084 193/1085 182/1086
f 194/1087 182/1088 183/1089
f 195/1090 194/1091 183/1092
f 195/1093 183/1094 184/1095
f 196/1096 195/1097 184/1098
f 196/1099 184/1100 185/1101
f 197/1102 196/1103 185/1104
f 197/1105 185/1106 186/1107
f 198/1108 197/1109 186/1110
f 198/1111 186/1112 187/1113
f 199/1114 198/1115 187/1116
f 199/1117 187/1118 200/1119
f 187/1120 188/1121 200/1122
f 200/1123 188/1124 201/1125
f 188/1126 189/1127 201/1128
f 201/1129 189/1130 202/1131
f 189/1132 190/1133 202/1134
f 202/1135 190/1136 203/1137
f 190/1138 191/1139 203/1140
f 203/1141 191/1142 204/1143
f 191/1144 192/1145 204/1146
f 204/1147 192/1148 193/1149
f 192/1150 181/1151 193/1152
f 205/1153 193/1154 194/1155
f 206/1156 205/1157 194/1158
f 206/1159 194/1160 195/1161
f 207/1162 206/1163 195/1164
f 207/1165 195/1166 196/1167
f 208/1168 207/1169 196/1170
f 208/1171 196/1172 197/1173
f 209/1174 208/1175 197/1176
f 209/1177 197/1178 198/1179
f 210/1180 209/1181 198/1182
f 210/1183 198/1184 199/1185
f 211/1186 210/1187 199/1188
f 211/1189 199/1190 212/1191
f 199/1192 200/1193 212/1194
f 212/1195 200/1196 213/1197
f 200/1198 201/1199 213/1200
f 213/1201 201/1202 214/1203
f 201/1204 202/1205 214/1206
f 214/1207 202/1208 215/1209
f 202/1210 203/1211 215/1212
f 215/1213 203/1214 216/1215
f 203/1216 204/1217 216/1218
f 216/1219 204/1220 205/1221
f 204/1222 193/1223 205/1224
f 217/1225 205/1226 206/1227
f 218/1228 217/1229 206/1230
f 218/1231 206/1232 207/1233
f 219/1234 218/1235 207/1236
f 219/1237 207/1238 208/1239
f 220/1240 219/1241 208/1242
f 220/1243 208/1244 209/1245
f 221/1246 220/1247 209/1248
f 221/1249 209/1250 210/1251
f 222/1252 221/1253 210/1254
f 222/1255 210/1256 211/1257
f 223/1258 222/1259 211/1260
f 223/1261 211/1262 224/1263
f 211/1264 212/1265 224/1266
f 224/1267 212/1268 225/1269
f 212/1270 213/1271 225/1272
f 225/1273 213/1274 226/1275
f 213/1276 214/1277 226/1278
f 226/1279 214/1280 227/1281
f 214/1282 215/1283 227/1284
f 227/1285 215/1286 228/1287
f 215/1288 216/1289 228/1290
f 228/1291 216/1292 217/1293
f 216/1294 205/1295 217/1296
f 229/1297 217/1298 218/1299
f 230/1300 229/1301 218/1302
f 230/1303 218/1304 219/1305
f 231/1306 230/1307 219/1308
f 231/1309 219/1310 220/1311
f 232/1312 231/1313 220/1314
f 232/1315 220/1316 221/1317
f 233/1318 232/1319 221/1320
f 233/1321 221/1322 222/1323
f 234/1324 233/1325 222/1326
f 234/1327 222/1328 223/1329
f 235/1330 234/1331 223/1332
f 235/1333 223/1334 236/1335
f 223/1336 224/1337 236/1338
f 236/1339 224/1340 237/1341
f 224/1342 225/1343 237/1344
f 237/1345 225/1346 238/1347
f 225/1348 226/1349 238/1350
f 238/1351 226/1352 239/1353
f 226/1354 227/1355 239/1356
f 239/1357 227/1358 240/1359
f 227/1360 228/1361 240/1362
f 240/1363 228/1364 229/1365
f 228/1366 217/1367 229/1368
